<svg xmlns="http://www.w3.org/2000/svg" viewBox="0 0 1024 576" width="1024" height="576">
  <defs>
    <filter id="s1" x="-1%" y="-1%" width="102%" height="105%">
      <feDropShadow dx="0" dy="3" stdDeviation="8" flood-opacity="0.12"/>
    </filter>
    <filter id="s2" x="-2%" y="-4%" width="104%" height="112%">
      <feDropShadow dx="0" dy="1" stdDeviation="2" flood-opacity="0.06"/>
    </filter>
  </defs>
  <!-- Background -->
  <rect width="1024" height="576" fill="#F9FAFB" rx="12"/>
  <!-- Faint board behind -->
  <rect x="40" y="40" width="520" height="496" rx="12" fill="#F3F4F6" opacity="0.5"/>
  <rect x="60" y="70" width="110" height="200" rx="8" fill="#EAEAEA" opacity="0.4"/>
  <rect x="180" y="70" width="110" height="200" rx="8" fill="#D4F1F4" opacity="0.4"/>
  <rect x="300" y="70" width="110" height="200" rx="8" fill="#FFF6D6" opacity="0.4"/>
  <rect x="420" y="70" width="110" height="200" rx="8" fill="#DEF0D8" opacity="0.4"/>
  <!-- Task Detail Drawer -->
  <rect x="480" y="28" width="504" height="520" rx="16" fill="white" filter="url(#s1)"/>
  <!-- Close button -->
  <circle cx="960" cy="52" r="12" fill="#F3F4F6"/>
  <line x1="955" y1="47" x2="965" y2="57" stroke="#9CA3AF" stroke-width="1.5" stroke-linecap="round"/>
  <line x1="965" y1="47" x2="955" y2="57" stroke="#9CA3AF" stroke-width="1.5" stroke-linecap="round"/>
  <!-- Task title -->
  <text x="508" y="68" font-family="Roboto,system-ui,sans-serif" font-size="20" font-weight="700" fill="#1F2937">UX + Conversion Audit</text>
  <!-- Status badges row -->
  <rect x="508" y="82" width="52" height="22" rx="11" fill="#E0F7FA"/>
  <text x="520" y="97" font-family="Roboto,system-ui,sans-serif" font-size="10" font-weight="600" fill="#00BCD4">Doing</text>
  <rect x="568" y="82" width="34" height="22" rx="11" fill="#FEE2E2"/>
  <text x="577" y="97" font-family="Roboto,system-ui,sans-serif" font-size="10" font-weight="700" fill="#EF4444">P1</text>
  <!-- Project badge -->
  <rect x="610" y="82" width="70" height="22" rx="11" fill="#F3E5F5"/>
  <text x="622" y="97" font-family="Roboto,system-ui,sans-serif" font-size="10" font-weight="600" fill="#9C27B0">Marketing</text>
  <!-- Assignees -->
  <circle cx="700" cy="93" r="11" fill="#00BCD4"/>
  <text x="700" y="97" font-family="Roboto,system-ui,sans-serif" font-size="8" font-weight="700" fill="white" text-anchor="middle">JH</text>
  <circle cx="718" cy="93" r="11" fill="#FF5722"/>
  <text x="718" y="97" font-family="Roboto,system-ui,sans-serif" font-size="8" font-weight="700" fill="white" text-anchor="middle">KT</text>
  <!-- Divider -->
  <line x1="508" y1="116" x2="960" y2="116" stroke="#F3F4F6" stroke-width="1"/>
  <!-- Meta row: due date, created -->
  <rect x="508" y="124" width="120" height="28" rx="8" fill="#FAFAFA"/>
  <text x="518" y="137" font-family="Roboto,system-ui,sans-serif" font-size="9" font-weight="500" fill="#9CA3AF">Due</text>
  <text x="518" y="148" font-family="Roboto,system-ui,sans-serif" font-size="10" font-weight="600" fill="#374151">Feb 28, 2026</text>
  <rect x="636" y="124" width="120" height="28" rx="8" fill="#FAFAFA"/>
  <text x="646" y="137" font-family="Roboto,system-ui,sans-serif" font-size="9" font-weight="500" fill="#9CA3AF">Created</text>
  <text x="646" y="148" font-family="Roboto,system-ui,sans-serif" font-size="10" font-weight="600" fill="#374151">Feb 20, 2026</text>
  <!-- GOAL section -->
  <text x="508" y="180" font-family="Roboto,system-ui,sans-serif" font-size="11" font-weight="700" fill="#E91E63" letter-spacing="1.2">GOAL</text>
  <rect x="508" y="190" width="430" height="8" rx="4" fill="#F3F4F6"/>
  <rect x="508" y="204" width="360" height="8" rx="4" fill="#F3F4F6"/>
  <rect x="508" y="218" width="280" height="8" rx="4" fill="#F3F4F6"/>
  <!-- SCOPE section -->
  <text x="508" y="252" font-family="Roboto,system-ui,sans-serif" font-size="11" font-weight="700" fill="#E91E63" letter-spacing="1.2">SCOPE</text>
  <!-- Scope items with bullets -->
  <circle cx="516" cy="268" r="2.5" fill="#E91E63" opacity="0.5"/>
  <rect x="526" y="264" width="300" height="8" rx="4" fill="#F3F4F6"/>
  <circle cx="516" cy="284" r="2.5" fill="#E91E63" opacity="0.5"/>
  <rect x="526" y="280" width="340" height="8" rx="4" fill="#F3F4F6"/>
  <circle cx="516" cy="300" r="2.5" fill="#E91E63" opacity="0.5"/>
  <rect x="526" y="296" width="260" height="8" rx="4" fill="#F3F4F6"/>
  <circle cx="516" cy="316" r="2.5" fill="#E91E63" opacity="0.5"/>
  <rect x="526" y="312" width="380" height="8" rx="4" fill="#F3F4F6"/>
  <!-- DELIVERABLES section -->
  <text x="508" y="348" font-family="Roboto,system-ui,sans-serif" font-size="11" font-weight="700" fill="#E91E63" letter-spacing="1.2">DELIVERABLES</text>
  <!-- Checklist style -->
  <rect x="510" y="358" width="12" height="12" rx="3" fill="none" stroke="#D1D5DB" stroke-width="1.5"/>
  <rect x="530" y="360" width="260" height="8" rx="4" fill="#F3F4F6"/>
  <rect x="510" y="378" width="12" height="12" rx="3" fill="none" stroke="#D1D5DB" stroke-width="1.5"/>
  <rect x="530" y="380" width="320" height="8" rx="4" fill="#F3F4F6"/>
  <rect x="510" y="398" width="12" height="12" rx="3" fill="#E0F7FA" stroke="#00BCD4" stroke-width="1.5"/>
  <polyline points="513,404 516,407 520,401" fill="none" stroke="#00BCD4" stroke-width="1.5" stroke-linecap="round" stroke-linejoin="round"/>
  <rect x="530" y="400" width="280" height="8" rx="4" fill="#E0F7FA"/>
  <!-- Notes section -->
  <text x="508" y="436" font-family="Roboto,system-ui,sans-serif" font-size="11" font-weight="700" fill="#E91E63" letter-spacing="1.2">NOTES</text>
  <rect x="508" y="446" width="430" height="48" rx="8" fill="#FFFDE7" stroke="#FFF9C4" stroke-width="1"/>
  <rect x="520" y="458" width="350" height="6" rx="3" fill="#FDE68A" opacity="0.5"/>
  <rect x="520" y="470" width="280" height="6" rx="3" fill="#FDE68A" opacity="0.5"/>
  <rect x="520" y="482" width="200" height="6" rx="3" fill="#FDE68A" opacity="0.5"/>
  <!-- Linked emails indicator -->
  <rect x="508" y="506" width="160" height="26" rx="8" fill="#F3F4F6"/>
  <text x="528" y="523" font-family="Roboto,system-ui,sans-serif" font-size="10" font-weight="500" fill="#6B7280">2 linked emails</text>
  <!-- Mail icon -->
  <rect x="514" y="514" width="10" height="7" rx="1.5" fill="none" stroke="#9CA3AF" stroke-width="1"/>
  <polyline points="514,515 519,519 524,515" fill="none" stroke="#9CA3AF" stroke-width="0.8"/>
  <!-- Title -->
  <text x="512" y="564" font-family="Roboto,system-ui,sans-serif" font-size="13" font-weight="600" fill="#6B7280" text-anchor="middle">Task Details</text>
</svg>
