<svg xmlns="http://www.w3.org/2000/svg" viewBox="0 0 1024 576" width="1024" height="576">
  <defs>
    <filter id="s1" x="-1%" y="-2%" width="102%" height="108%">
      <feDropShadow dx="0" dy="2" stdDeviation="4" flood-opacity="0.1"/>
    </filter>
    <filter id="s2" x="-2%" y="-4%" width="104%" height="112%">
      <feDropShadow dx="0" dy="1" stdDeviation="2" flood-opacity="0.06"/>
    </filter>
    <filter id="shadow-lg" x="-3%" y="-3%" width="106%" height="112%">
      <feDropShadow dx="0" dy="4" stdDeviation="10" flood-opacity="0.15"/>
    </filter>
  </defs>
  <!-- Background -->
  <rect width="1024" height="576" fill="#F9FAFB" rx="12"/>
  <!-- Filter bar card -->
  <rect x="80" y="40" width="864" height="72" rx="12" fill="white" filter="url(#s1)"/>
  <!-- Person avatars -->
  <text x="100" y="62" font-family="Roboto,system-ui,sans-serif" font-size="10" font-weight="600" fill="#9CA3AF" letter-spacing="0.5">PEOPLE</text>
  <!-- JH avatar (active) -->
  <circle cx="108" cy="86" r="14" fill="#00BCD4" stroke="#00BCD4" stroke-width="2"/>
  <text x="108" y="90" font-family="Roboto,system-ui,sans-serif" font-size="9" font-weight="700" fill="white" text-anchor="middle">JH</text>
  <!-- KT avatar -->
  <circle cx="142" cy="86" r="14" fill="#FF5722"/>
  <text x="142" y="90" font-family="Roboto,system-ui,sans-serif" font-size="9" font-weight="700" fill="white" text-anchor="middle">KT</text>
  <!-- AN avatar -->
  <circle cx="176" cy="86" r="14" fill="#2196F3"/>
  <text x="176" y="90" font-family="Roboto,system-ui,sans-serif" font-size="9" font-weight="700" fill="white" text-anchor="middle">AN</text>
  <!-- RG avatar -->
  <circle cx="210" cy="86" r="14" fill="#9C27B0"/>
  <text x="210" y="90" font-family="Roboto,system-ui,sans-serif" font-size="9" font-weight="700" fill="white" text-anchor="middle">RG</text>
  <!-- Divider -->
  <line x1="240" y1="56" x2="240" y2="100" stroke="#F3F4F6" stroke-width="1"/>
  <!-- Project pills -->
  <text x="260" y="62" font-family="Roboto,system-ui,sans-serif" font-size="10" font-weight="600" fill="#9CA3AF" letter-spacing="0.5">PROJECTS</text>
  <rect x="260" y="72" width="82" height="26" rx="13" fill="#FFF3E0" stroke="#FF9800" stroke-width="1"/>
  <text x="278" y="89" font-family="Roboto,system-ui,sans-serif" font-size="10" font-weight="600" fill="#FF9800">Marketing</text>
  <rect x="350" y="72" width="96" height="26" rx="13" fill="#F3F4F6" stroke="#E5E7EB" stroke-width="1"/>
  <text x="368" y="89" font-family="Roboto,system-ui,sans-serif" font-size="10" font-weight="500" fill="#6B7280">Partnerships</text>
  <rect x="454" y="72" width="64" height="26" rx="13" fill="#F3F4F6" stroke="#E5E7EB" stroke-width="1"/>
  <text x="468" y="89" font-family="Roboto,system-ui,sans-serif" font-size="10" font-weight="500" fill="#6B7280">Product</text>
  <!-- Divider -->
  <line x1="534" y1="56" x2="534" y2="100" stroke="#F3F4F6" stroke-width="1"/>
  <!-- Status buttons -->
  <text x="554" y="62" font-family="Roboto,system-ui,sans-serif" font-size="10" font-weight="600" fill="#9CA3AF" letter-spacing="0.5">STATUS</text>
  <rect x="554" y="72" width="56" height="26" rx="13" fill="#F3F4F6"/>
  <circle cx="568" cy="85" r="4" fill="#9E9E9E"/>
  <text x="578" y="89" font-family="Roboto,system-ui,sans-serif" font-size="9" font-weight="500" fill="#6B7280">Backlog</text>
  <rect x="618" y="72" width="50" height="26" rx="13" fill="#E0F7FA" stroke="#00BCD4" stroke-width="1"/>
  <circle cx="632" cy="85" r="4" fill="#00BCD4"/>
  <text x="642" y="89" font-family="Roboto,system-ui,sans-serif" font-size="9" font-weight="600" fill="#00BCD4">Doing</text>
  <rect x="676" y="72" width="56" height="26" rx="13" fill="#F3F4F6"/>
  <circle cx="690" cy="85" r="4" fill="#FFD600"/>
  <text x="700" y="89" font-family="Roboto,system-ui,sans-serif" font-size="9" font-weight="500" fill="#6B7280">Waiting</text>
  <rect x="740" y="72" width="46" height="26" rx="13" fill="#F3F4F6"/>
  <circle cx="754" cy="85" r="4" fill="#4CAF50"/>
  <text x="764" y="89" font-family="Roboto,system-ui,sans-serif" font-size="9" font-weight="500" fill="#6B7280">Done</text>
  <!-- Search icon button -->
  <rect x="898" y="62" width="36" height="36" rx="10" fill="#FF9800" opacity="0.1"/>
  <circle cx="912" cy="76" r="6" fill="none" stroke="#FF9800" stroke-width="1.5"/>
  <line x1="917" y1="81" x2="921" y2="85" stroke="#FF9800" stroke-width="1.5" stroke-linecap="round"/>
  <!-- Dimmed content behind search modal -->
  <rect x="80" y="130" width="864" height="340" rx="12" fill="#F3F4F6" opacity="0.4"/>
  <rect x="100" y="150" width="200" height="40" rx="8" fill="#E5E7EB" opacity="0.3"/>
  <rect x="100" y="200" width="200" height="40" rx="8" fill="#E5E7EB" opacity="0.3"/>
  <rect x="320" y="150" width="200" height="40" rx="8" fill="#E5E7EB" opacity="0.3"/>
  <rect x="320" y="200" width="200" height="40" rx="8" fill="#E5E7EB" opacity="0.3"/>
  <rect x="540" y="150" width="200" height="40" rx="8" fill="#E5E7EB" opacity="0.3"/>
  <!-- Search modal overlay -->
  <rect x="212" y="155" width="600" height="310" rx="16" fill="white" filter="url(#shadow-lg)"/>
  <!-- Search input -->
  <rect x="232" y="175" width="560" height="44" rx="10" fill="#F9FAFB" stroke="#E5E7EB" stroke-width="1.5"/>
  <!-- Search icon in input -->
  <circle cx="254" cy="197" r="7" fill="none" stroke="#D1D5DB" stroke-width="1.5"/>
  <line x1="259" y1="202" x2="264" y2="207" stroke="#D1D5DB" stroke-width="1.5" stroke-linecap="round"/>
  <text x="274" y="201" font-family="Roboto,system-ui,sans-serif" font-size="14" font-weight="400" fill="#9CA3AF">Search tasks, messages, files...</text>
  <!-- Keyboard shortcut -->
  <rect x="738" y="188" width="38" height="20" rx="4" fill="#F3F4F6" stroke="#E5E7EB" stroke-width="1"/>
  <text x="757" y="202" font-family="Roboto,system-ui,sans-serif" font-size="10" font-weight="500" fill="#9CA3AF" text-anchor="middle">⌘K</text>
  <!-- Results section -->
  <text x="242" y="244" font-family="Roboto,system-ui,sans-serif" font-size="10" font-weight="600" fill="#9CA3AF" letter-spacing="0.8">RECENT TASKS</text>
  <!-- Result 1 -->
  <rect x="232" y="254" width="560" height="42" rx="8" fill="#FAFAFA" filter="url(#s2)"/>
  <circle cx="258" cy="275" r="8" fill="#E0F7FA"/>
  <rect x="252" y="271" width="4" height="4" rx="1" fill="#00BCD4"/>
  <rect x="258" y="271" width="4" height="4" rx="1" fill="#00BCD4"/>
  <text x="274" y="272" font-family="Roboto,system-ui,sans-serif" font-size="12" font-weight="600" fill="#374151">UX + Conversion Audit</text>
  <rect x="440" y="266" width="52" height="16" rx="8" fill="#E0F7FA"/>
  <text x="452" y="278" font-family="Roboto,system-ui,sans-serif" font-size="8" font-weight="600" fill="#00BCD4">Doing</text>
  <text x="274" y="286" font-family="Roboto,system-ui,sans-serif" font-size="10" font-weight="400" fill="#9CA3AF">Marketing · Due Feb 28</text>
  <!-- Result 2 -->
  <rect x="232" y="304" width="560" height="42" rx="8" fill="white"/>
  <circle cx="258" cy="325" r="8" fill="#FFF9C4"/>
  <rect x="254" y="323" width="8" height="5" rx="1" fill="#FFD600"/>
  <text x="274" y="322" font-family="Roboto,system-ui,sans-serif" font-size="12" font-weight="500" fill="#374151">Client proposal review</text>
  <rect x="440" y="316" width="56" height="16" rx="8" fill="#FFF9C4"/>
  <text x="452" y="328" font-family="Roboto,system-ui,sans-serif" font-size="8" font-weight="600" fill="#D97706">Waiting</text>
  <text x="274" y="336" font-family="Roboto,system-ui,sans-serif" font-size="10" font-weight="400" fill="#9CA3AF">Partnerships · Due Mar 3</text>
  <!-- Result 3 -->
  <rect x="232" y="354" width="560" height="42" rx="8" fill="white"/>
  <circle cx="258" cy="375" r="8" fill="#F3F4F6"/>
  <rect x="254" y="373" width="8" height="5" rx="1" fill="#9E9E9E"/>
  <text x="274" y="372" font-family="Roboto,system-ui,sans-serif" font-size="12" font-weight="500" fill="#374151">Update brand guidelines v2</text>
  <rect x="440" y="366" width="56" height="16" rx="8" fill="#F3F4F6"/>
  <text x="452" y="378" font-family="Roboto,system-ui,sans-serif" font-size="8" font-weight="600" fill="#9CA3AF">Backlog</text>
  <text x="274" y="386" font-family="Roboto,system-ui,sans-serif" font-size="10" font-weight="400" fill="#9CA3AF">Marketing · No due date</text>
  <!-- Results footer -->
  <text x="242" y="448" font-family="Roboto,system-ui,sans-serif" font-size="10" font-weight="500" fill="#FF9800">↵ to select · ↑↓ to navigate · esc to close</text>
  <!-- Title -->
  <text x="512" y="548" font-family="Roboto,system-ui,sans-serif" font-size="13" font-weight="600" fill="#6B7280" text-anchor="middle">Filter &amp; Search</text>
</svg>
