<svg xmlns="http://www.w3.org/2000/svg" viewBox="0 0 1024 576" width="1024" height="576">
  <defs>
    <filter id="s1" x="-2%" y="-4%" width="104%" height="112%">
      <feDropShadow dx="0" dy="2" stdDeviation="3" flood-opacity="0.1"/>
    </filter>
    <filter id="s2" x="-1%" y="-3%" width="102%" height="110%">
      <feDropShadow dx="0" dy="1" stdDeviation="2" flood-opacity="0.06"/>
    </filter>
    <linearGradient id="g1" x1="0%" y1="0%" x2="100%" y2="0%">
      <stop offset="0%" stop-color="#00BCD4"/>
      <stop offset="100%" stop-color="#E91E63"/>
    </linearGradient>
  </defs>
  <!-- Background -->
  <rect width="1024" height="576" fill="#F9FAFB" rx="12"/>
  <!-- Tab container pill -->
  <rect x="262" y="80" width="500" height="52" rx="26" fill="#F3F4F6" filter="url(#s1)"/>
  <!-- My Day tab -->
  <g>
    <rect x="274" y="88" width="108" height="36" rx="18" fill="transparent"/>
    <!-- Sun icon -->
    <circle cx="304" cy="106" r="6" fill="none" stroke="#9CA3AF" stroke-width="1.5"/>
    <line x1="304" y1="96" x2="304" y2="93" stroke="#9CA3AF" stroke-width="1.5" stroke-linecap="round"/>
    <line x1="304" y1="116" x2="304" y2="119" stroke="#9CA3AF" stroke-width="1.5" stroke-linecap="round"/>
    <line x1="294" y1="106" x2="291" y2="106" stroke="#9CA3AF" stroke-width="1.5" stroke-linecap="round"/>
    <line x1="314" y1="106" x2="317" y2="106" stroke="#9CA3AF" stroke-width="1.5" stroke-linecap="round"/>
    <text x="322" y="111" font-family="Roboto,system-ui,sans-serif" font-size="14" font-weight="500" fill="#9CA3AF">My Day</text>
  </g>
  <!-- Board tab (active) -->
  <rect x="390" y="88" width="100" height="36" rx="18" fill="white" filter="url(#s2)"/>
  <!-- Grid icon -->
  <rect x="410" y="99" width="6" height="6" rx="1" fill="#374151"/>
  <rect x="418" y="99" width="6" height="6" rx="1" fill="#374151"/>
  <rect x="410" y="107" width="6" height="6" rx="1" fill="#374151"/>
  <rect x="418" y="107" width="6" height="6" rx="1" fill="#374151"/>
  <text x="432" y="111" font-family="Roboto,system-ui,sans-serif" font-size="14" font-weight="600" fill="#374151">Board</text>
  <!-- List tab -->
  <g>
    <rect x="498" y="88" width="88" height="36" rx="18" fill="transparent"/>
    <!-- List icon -->
    <line x1="518" y1="100" x2="530" y2="100" stroke="#9CA3AF" stroke-width="1.5" stroke-linecap="round"/>
    <line x1="518" y1="106" x2="534" y2="106" stroke="#9CA3AF" stroke-width="1.5" stroke-linecap="round"/>
    <line x1="518" y1="112" x2="528" y2="112" stroke="#9CA3AF" stroke-width="1.5" stroke-linecap="round"/>
    <text x="541" y="111" font-family="Roboto,system-ui,sans-serif" font-size="14" font-weight="500" fill="#9CA3AF">List</text>
  </g>
  <!-- Messages tab -->
  <g>
    <rect x="594" y="88" width="120" height="36" rx="18" fill="transparent"/>
    <!-- Message icon -->
    <rect x="612" y="98" width="14" height="11" rx="2" fill="none" stroke="#9CA3AF" stroke-width="1.5"/>
    <polyline points="612,100 619,105 626,100" fill="none" stroke="#9CA3AF" stroke-width="1.2"/>
    <text x="632" y="111" font-family="Roboto,system-ui,sans-serif" font-size="14" font-weight="500" fill="#9CA3AF">Messages</text>
  </g>
  <!-- Faint Board preview (active) -->
  <rect x="182" y="170" width="660" height="340" rx="12" fill="white" filter="url(#s1)" opacity="0.9"/>
  <!-- 4 mini columns -->
  <rect x="202" y="194" width="148" height="296" rx="8" fill="#FAFAFA" stroke="#E5E7EB" stroke-width="1"/>
  <circle cx="218" cy="212" r="4" fill="#9E9E9E"/>
  <text x="228" y="216" font-family="Roboto,system-ui,sans-serif" font-size="10" font-weight="700" fill="#6B7280">Backlog</text>
  <rect x="212" y="228" width="128" height="36" rx="6" fill="white" stroke="#E5E7EB" stroke-width="1"/>
  <rect x="220" y="236" width="70" height="6" rx="3" fill="#D1D5DB"/>
  <rect x="220" y="248" width="100" height="4" rx="2" fill="#E5E7EB"/>
  <rect x="212" y="272" width="128" height="36" rx="6" fill="white" stroke="#E5E7EB" stroke-width="1"/>
  <rect x="220" y="280" width="60" height="6" rx="3" fill="#D1D5DB"/>
  <rect x="220" y="292" width="90" height="4" rx="2" fill="#E5E7EB"/>

  <rect x="362" y="194" width="148" height="296" rx="8" fill="#FAFAFA" stroke="#B2EBF2" stroke-width="1"/>
  <circle cx="378" cy="212" r="4" fill="#00BCD4"/>
  <text x="388" y="216" font-family="Roboto,system-ui,sans-serif" font-size="10" font-weight="700" fill="#6B7280">Doing</text>
  <rect x="372" y="228" width="128" height="36" rx="6" fill="white" stroke="#B2EBF2" stroke-width="1"/>
  <rect x="380" y="236" width="80" height="6" rx="3" fill="#80DEEA"/>
  <rect x="380" y="248" width="105" height="4" rx="2" fill="#E0F7FA"/>
  <rect x="372" y="272" width="128" height="36" rx="6" fill="white" stroke="#B2EBF2" stroke-width="1"/>
  <rect x="380" y="280" width="65" height="6" rx="3" fill="#80DEEA"/>
  <rect x="380" y="292" width="95" height="4" rx="2" fill="#E0F7FA"/>

  <rect x="522" y="194" width="148" height="296" rx="8" fill="#FAFAFA" stroke="#FDE68A" stroke-width="1"/>
  <circle cx="538" cy="212" r="4" fill="#FFD600"/>
  <text x="548" y="216" font-family="Roboto,system-ui,sans-serif" font-size="10" font-weight="700" fill="#6B7280">Waiting</text>
  <rect x="532" y="228" width="128" height="36" rx="6" fill="white" stroke="#FDE68A" stroke-width="1"/>
  <rect x="540" y="236" width="75" height="6" rx="3" fill="#FDE68A"/>
  <rect x="540" y="248" width="100" height="4" rx="2" fill="#FFF9C4"/>

  <rect x="682" y="194" width="148" height="296" rx="8" fill="#FAFAFA" stroke="#C8E6C9" stroke-width="1"/>
  <circle cx="698" cy="212" r="4" fill="#4CAF50"/>
  <text x="708" y="216" font-family="Roboto,system-ui,sans-serif" font-size="10" font-weight="700" fill="#6B7280">Done</text>
  <rect x="692" y="228" width="128" height="36" rx="6" fill="white" stroke="#C8E6C9" stroke-width="1"/>
  <rect x="700" y="236" width="65" height="6" rx="3" fill="#A5D6A7"/>
  <rect x="700" y="248" width="85" height="4" rx="2" fill="#E8F5E9"/>
  <rect x="692" y="272" width="128" height="36" rx="6" fill="white" stroke="#C8E6C9" stroke-width="1"/>
  <rect x="700" y="280" width="55" height="6" rx="3" fill="#A5D6A7"/>
  <rect x="700" y="292" width="95" height="4" rx="2" fill="#E8F5E9"/>
  <!-- Title -->
  <text x="512" y="548" font-family="Roboto,system-ui,sans-serif" font-size="13" font-weight="600" fill="#6B7280" text-anchor="middle">Switch Between Views</text>
</svg>
