<svg xmlns="http://www.w3.org/2000/svg" viewBox="0 0 1024 576" width="1024" height="576">
  <defs>
    <linearGradient id="g1" x1="0%" y1="0%" x2="100%" y2="0%">
      <stop offset="0%" stop-color="#00BCD4"/>
      <stop offset="100%" stop-color="#E91E63"/>
    </linearGradient>
    <filter id="s1" x="-2%" y="-2%" width="104%" height="108%">
      <feDropShadow dx="0" dy="1" stdDeviation="2" flood-opacity="0.08"/>
    </filter>
    <filter id="s2" x="-2%" y="-2%" width="104%" height="110%">
      <feDropShadow dx="0" dy="2" stdDeviation="4" flood-opacity="0.1"/>
    </filter>
  </defs>
  <!-- Background -->
  <rect width="1024" height="576" fill="#F9FAFB" rx="12"/>
  <!-- Header bar -->
  <rect x="40" y="30" width="944" height="48" rx="10" fill="white" filter="url(#s2)"/>
  <rect x="52" y="40" width="6" height="28" rx="3" fill="url(#g1)"/>
  <text x="66" y="60" font-family="Roboto,system-ui,sans-serif" font-size="16" font-weight="900" fill="#1F2937">TB</text>
  <text x="86" y="60" font-family="Roboto,system-ui,sans-serif" font-size="13" font-weight="700" fill="#6B7280" letter-spacing="1.5">TASKBOARD</text>
  <!-- Header tabs -->
  <rect x="380" y="40" width="260" height="28" rx="14" fill="#F3F4F6"/>
  <rect x="430" y="42" width="54" height="24" rx="12" fill="white" filter="url(#s1)"/>
  <text x="441" y="58" font-family="Roboto,system-ui,sans-serif" font-size="10" font-weight="600" fill="#374151">Board</text>
  <text x="395" y="58" font-family="Roboto,system-ui,sans-serif" font-size="10" font-weight="500" fill="#9CA3AF">My Day</text>
  <text x="500" y="58" font-family="Roboto,system-ui,sans-serif" font-size="10" font-weight="500" fill="#9CA3AF">List</text>
  <text x="545" y="58" font-family="Roboto,system-ui,sans-serif" font-size="10" font-weight="500" fill="#9CA3AF">Messages</text>
  <!-- User avatar -->
  <circle cx="950" cy="54" r="14" fill="#00BCD4"/>
  <text x="950" y="58" font-family="Roboto,system-ui,sans-serif" font-size="10" font-weight="700" fill="white" text-anchor="middle">JH</text>
  <!-- Kanban columns -->
  <!-- Backlog -->
  <rect x="40" y="96" width="210" height="440" rx="10" fill="white" filter="url(#s2)"/>
  <circle cx="56" cy="116" r="5" fill="#9E9E9E"/>
  <text x="68" y="120" font-family="Roboto,system-ui,sans-serif" font-size="12" font-weight="700" fill="#374151">Backlog</text>
  <rect x="134" y="108" width="18" height="16" rx="8" fill="#F3F4F6"/>
  <text x="143" y="120" font-family="Roboto,system-ui,sans-serif" font-size="9" font-weight="600" fill="#9CA3AF" text-anchor="middle">3</text>
  <!-- Backlog cards -->
  <rect x="52" y="136" width="186" height="64" rx="8" fill="#FAFAFA" stroke="#E5E7EB" stroke-width="1"/>
  <rect x="62" y="146" width="100" height="8" rx="4" fill="#D1D5DB"/>
  <rect x="62" y="162" width="140" height="6" rx="3" fill="#E5E7EB"/>
  <rect x="62" y="176" width="50" height="14" rx="7" fill="#F3F4F6"/>
  <text x="74" y="186" font-family="Roboto,system-ui,sans-serif" font-size="8" fill="#9CA3AF">Backlog</text>
  <rect x="52" y="210" width="186" height="64" rx="8" fill="#FAFAFA" stroke="#E5E7EB" stroke-width="1"/>
  <rect x="62" y="220" width="120" height="8" rx="4" fill="#D1D5DB"/>
  <rect x="62" y="236" width="130" height="6" rx="3" fill="#E5E7EB"/>
  <rect x="62" y="250" width="50" height="14" rx="7" fill="#F3F4F6"/>
  <text x="74" y="260" font-family="Roboto,system-ui,sans-serif" font-size="8" fill="#9CA3AF">Backlog</text>
  <rect x="52" y="284" width="186" height="52" rx="8" fill="#FAFAFA" stroke="#E5E7EB" stroke-width="1"/>
  <rect x="62" y="294" width="90" height="8" rx="4" fill="#D1D5DB"/>
  <rect x="62" y="310" width="110" height="6" rx="3" fill="#E5E7EB"/>
  <!-- Doing -->
  <rect x="262" y="96" width="210" height="440" rx="10" fill="white" filter="url(#s2)"/>
  <circle cx="278" cy="116" r="5" fill="#00BCD4"/>
  <text x="290" y="120" font-family="Roboto,system-ui,sans-serif" font-size="12" font-weight="700" fill="#374151">Doing</text>
  <rect x="350" y="108" width="18" height="16" rx="8" fill="#E0F7FA"/>
  <text x="359" y="120" font-family="Roboto,system-ui,sans-serif" font-size="9" font-weight="600" fill="#00BCD4" text-anchor="middle">2</text>
  <!-- Doing cards -->
  <rect x="274" y="136" width="186" height="72" rx="8" fill="#FAFAFA" stroke="#B2EBF2" stroke-width="1"/>
  <rect x="284" y="146" width="110" height="8" rx="4" fill="#374151" opacity="0.3"/>
  <rect x="284" y="162" width="150" height="6" rx="3" fill="#E5E7EB"/>
  <rect x="284" y="176" width="48" height="14" rx="7" fill="#E0F7FA"/>
  <text x="296" y="186" font-family="Roboto,system-ui,sans-serif" font-size="8" fill="#00BCD4">Doing</text>
  <circle cx="444" cy="196" r="8" fill="#9C27B0"/>
  <text x="444" y="200" font-family="Roboto,system-ui,sans-serif" font-size="7" font-weight="700" fill="white" text-anchor="middle">KT</text>
  <rect x="274" y="218" width="186" height="64" rx="8" fill="#FAFAFA" stroke="#B2EBF2" stroke-width="1"/>
  <rect x="284" y="228" width="95" height="8" rx="4" fill="#374151" opacity="0.3"/>
  <rect x="284" y="244" width="140" height="6" rx="3" fill="#E5E7EB"/>
  <rect x="284" y="258" width="48" height="14" rx="7" fill="#E0F7FA"/>
  <text x="296" y="268" font-family="Roboto,system-ui,sans-serif" font-size="8" fill="#00BCD4">Doing</text>
  <!-- Waiting -->
  <rect x="484" y="96" width="210" height="440" rx="10" fill="white" filter="url(#s2)"/>
  <circle cx="500" cy="116" r="5" fill="#FFD600"/>
  <text x="512" y="120" font-family="Roboto,system-ui,sans-serif" font-size="12" font-weight="700" fill="#374151">Waiting</text>
  <rect x="582" y="108" width="18" height="16" rx="8" fill="#FFF9C4"/>
  <text x="591" y="120" font-family="Roboto,system-ui,sans-serif" font-size="9" font-weight="600" fill="#F59E0B" text-anchor="middle">2</text>
  <!-- Waiting cards -->
  <rect x="496" y="136" width="186" height="64" rx="8" fill="#FAFAFA" stroke="#FDE68A" stroke-width="1"/>
  <rect x="506" y="146" width="105" height="8" rx="4" fill="#374151" opacity="0.3"/>
  <rect x="506" y="162" width="145" height="6" rx="3" fill="#E5E7EB"/>
  <rect x="506" y="176" width="54" height="14" rx="7" fill="#FFF9C4"/>
  <text x="518" y="186" font-family="Roboto,system-ui,sans-serif" font-size="8" fill="#D97706">Waiting</text>
  <rect x="496" y="210" width="186" height="56" rx="8" fill="#FAFAFA" stroke="#FDE68A" stroke-width="1"/>
  <rect x="506" y="220" width="80" height="8" rx="4" fill="#374151" opacity="0.3"/>
  <rect x="506" y="236" width="120" height="6" rx="3" fill="#E5E7EB"/>
  <!-- Done -->
  <rect x="706" y="96" width="130" height="440" rx="10" fill="white" filter="url(#s2)"/>
  <circle cx="722" cy="116" r="5" fill="#4CAF50"/>
  <text x="734" y="120" font-family="Roboto,system-ui,sans-serif" font-size="12" font-weight="700" fill="#374151">Done</text>
  <rect x="780" y="108" width="18" height="16" rx="8" fill="#E8F5E9"/>
  <text x="789" y="120" font-family="Roboto,system-ui,sans-serif" font-size="9" font-weight="600" fill="#4CAF50" text-anchor="middle">3</text>
  <rect x="718" y="136" width="106" height="48" rx="8" fill="#FAFAFA" stroke="#C8E6C9" stroke-width="1"/>
  <rect x="726" y="146" width="70" height="7" rx="3" fill="#374151" opacity="0.2"/>
  <rect x="726" y="160" width="50" height="5" rx="2" fill="#E5E7EB"/>
  <rect x="718" y="194" width="106" height="48" rx="8" fill="#FAFAFA" stroke="#C8E6C9" stroke-width="1"/>
  <rect x="726" y="204" width="60" height="7" rx="3" fill="#374151" opacity="0.2"/>
  <rect x="726" y="218" width="80" height="5" rx="2" fill="#E5E7EB"/>
  <rect x="718" y="252" width="106" height="48" rx="8" fill="#FAFAFA" stroke="#C8E6C9" stroke-width="1"/>
  <rect x="726" y="262" width="75" height="7" rx="3" fill="#374151" opacity="0.2"/>
  <rect x="726" y="276" width="55" height="5" rx="2" fill="#E5E7EB"/>
  <!-- Chat panel on right -->
  <rect x="848" y="96" width="136" height="440" rx="10" fill="white" filter="url(#s2)"/>
  <rect x="848" y="96" width="136" height="32" rx="10" fill="url(#g1)"/>
  <rect x="858" y="128" width="116" height="1" fill="#E5E7EB"/>
  <text x="880" y="117" font-family="Roboto,system-ui,sans-serif" font-size="10" font-weight="700" fill="white">Quick Task</text>
  <!-- Chat messages -->
  <rect x="858" y="142" width="80" height="22" rx="8" fill="#F3F4F6"/>
  <rect x="864" y="150" width="50" height="5" rx="2" fill="#D1D5DB"/>
  <rect x="888" y="174" width="86" height="22" rx="8" fill="#E0F7FA"/>
  <rect x="894" y="182" width="60" height="5" rx="2" fill="#80DEEA"/>
  <rect x="858" y="206" width="70" height="22" rx="8" fill="#F3F4F6"/>
  <rect x="864" y="214" width="45" height="5" rx="2" fill="#D1D5DB"/>
  <!-- Chat input -->
  <rect x="856" y="504" width="120" height="24" rx="12" fill="#F3F4F6" stroke="#E5E7EB" stroke-width="1"/>
  <rect x="866" y="513" width="60" height="5" rx="2" fill="#D1D5DB"/>
  <circle cx="964" cy="516" r="8" fill="#00BCD4"/>
  <!-- Title overlay -->
  <text x="512" y="556" font-family="Roboto,system-ui,sans-serif" font-size="13" font-weight="600" fill="#6B7280" text-anchor="middle">Welcome to TaskBoard</text>
</svg>
